<svg height="600" viewBox="0 0 900 600" width="900" xmlns="http://www.w3.org/2000/svg"><path d="m0 0h900v600h-900z" fill="#6190e8"/><g transform="translate(900)"><path d="m0 459.7c-52.7-22.2-105.3-44.4-164.6-62.4-59.2-18-124.9-31.8-160.5-72.2-35.5-40.5-40.9-107.7-58.3-166.3s-46.9-108.7-76.3-158.8h459.7z" fill="#84a8e9"/><path d="m0 229.9c-26.3-11.2-52.7-22.3-82.3-31.3s-62.5-15.8-80.2-36.1c-17.8-20.2-20.5-53.8-29.2-83.1s-23.4-54.4-38.2-79.4h229.9z" fill="#a7bfe8"/></g><g transform="translate(0 600)"><path d="m0-459.7c62.5 3.3 125 6.6 175.9 35 50.9 28.3 90.1 81.7 117.5 131.3 27.5 49.5 43 95.1 68.8 143.4 25.7 48.3 61.6 99.1 97.5 150h-459.7z" fill="#84a8e9"/><path d="m0-229.9c31.3 1.7 62.5 3.4 88 17.5 25.4 14.2 45 40.9 58.7 65.7 13.7 24.7 21.5 47.6 34.4 71.7 12.8 24.1 30.8 49.6 48.8 75h-229.9z" fill="#a7bfe8"/></g></svg>